<?xml version="1.0" standalone="no"?>
<!DOCTYPE svg PUBLIC "-//W3C//DTD SVG 20010904//EN"
 "http://www.w3.org/TR/2001/REC-SVG-20010904/DTD/svg10.dtd">
<svg version="1.0" xmlns="http://www.w3.org/2000/svg"
 width="474.000000pt" height="315.000000pt" viewBox="0 0 474.000000 315.000000"
 preserveAspectRatio="xMidYMid meet">

<g transform="translate(0.000000,315.000000) scale(0.100000,-0.100000)"
fill="#000000" stroke="none">
<path d="M261 3105 c-6 -25 -16 -43 -21 -40 -5 3 -28 -1 -52 -10 -47 -16 -101
-18 -133 -5 -13 5 -26 3 -37 -8 -17 -14 -18 -65 -18 -807 l0 -792 41 11 c37
10 43 9 58 -10 9 -12 27 -24 38 -28 12 -4 27 -13 33 -21 13 -16 -9 -28 -114
-66 -44 -16 -62 -41 -24 -32 13 2 37 11 53 18 28 13 63 27 75 30 3 0 18 4 34
8 23 6 34 3 52 -14 29 -27 30 -36 7 -42 -10 -2 7 -3 39 -3 44 1 61 -4 80 -20
12 -12 29 -19 35 -17 7 3 13 0 13 -5 0 -6 -9 -14 -20 -17 -11 -3 -20 -10 -20
-13 0 -11 -84 -34 -106 -30 -11 2 -19 -3 -19 -12 -1 -8 -6 -14 -13 -12 -7 1
-12 -2 -12 -6 0 -17 60 -92 73 -92 7 0 21 -24 30 -54 16 -50 20 -54 55 -60 20
-3 49 -6 65 -6 32 0 34 -13 7 -47 -29 -38 -25 -43 31 -43 50 0 51 -1 45 -26
-23 -90 -20 -101 17 -58 15 17 28 23 40 19 21 -9 22 -21 3 -28 -10 -4 -13 -1
-9 9 3 7 0 14 -6 14 -7 0 -15 -8 -18 -18 -9 -23 -25 -33 -44 -26 -17 5 -33
-21 -23 -37 3 -5 20 -9 39 -9 47 0 85 -16 85 -37 0 -9 -12 -34 -26 -55 l-27
-38 27 -25 c15 -14 31 -25 36 -25 4 0 6 -9 3 -20 -3 -11 3 -32 13 -47 10 -16
17 -34 16 -40 -2 -7 2 -13 8 -13 5 0 10 5 10 10 0 6 5 10 11 10 7 0 18 8 26
18 14 16 14 16 9 0 -3 -10 -1 -18 5 -18 6 0 8 -9 4 -20 -5 -15 -2 -20 14 -20
10 0 26 -3 34 -6 10 -3 22 6 33 26 19 30 24 32 69 15 l20 -8 -20 16 c-11 9
-30 17 -42 17 -27 0 -38 16 -20 27 19 11 28 41 14 47 -23 9 22 6 47 -4 14 -5
26 -6 26 -2 0 4 18 7 41 7 l41 0 -56 -24 c-31 -14 -56 -29 -56 -33 0 -15 53
-8 73 9 19 17 19 17 13 -7 -3 -14 -3 -20 0 -13 3 7 21 15 40 19 30 6 38 16 36
44 0 3 8 7 20 7 18 2 18 0 5 -20 -7 -11 -20 -24 -28 -28 -8 -3 -28 -14 -46
-23 -17 -9 -38 -16 -47 -16 -9 0 -16 -4 -16 -10 0 -14 -76 -50 -118 -56 -20
-2 -40 -11 -45 -19 -4 -8 -16 -15 -26 -15 -33 0 -32 -14 6 -51 56 -53 68 -71
65 -91 -2 -10 1 -18 7 -18 9 0 78 32 184 85 15 8 33 12 41 9 7 -3 16 2 20 11
4 10 12 15 22 11 8 -3 33 5 54 19 45 29 50 30 50 12 0 -16 -27 -33 -68 -42
-18 -3 -32 -11 -32 -16 0 -5 -8 -9 -18 -9 -10 0 -27 -6 -37 -14 -10 -7 -26
-11 -34 -9 -9 2 -29 -8 -45 -22 -16 -14 -35 -25 -42 -25 -7 0 -17 -6 -21 -12
-4 -7 -12 -13 -18 -13 -29 -1 -106 -33 -153 -62 -42 -26 -59 -32 -80 -26 -49
14 -234 5 -250 -11 -14 -13 -13 -17 9 -35 35 -29 192 -30 229 -1 14 11 31 20
37 20 7 0 22 9 33 20 11 11 31 20 44 20 14 0 28 5 31 10 3 6 17 10 30 10 13 0
27 5 30 11 4 6 13 8 19 6 7 -3 17 3 23 13 6 9 41 26 77 36 36 10 66 22 66 26
0 5 7 8 15 8 8 0 15 3 15 8 0 10 50 32 72 32 10 0 21 7 24 15 8 19 24 20 24 1
0 -11 6 -10 35 3 19 9 33 23 32 31 -1 9 8 16 23 18 20 2 22 1 10 -7 -13 -9
-12 -12 4 -24 14 -10 17 -21 13 -38 -6 -23 -4 -25 28 -21 19 2 35 8 35 13 0 5
6 6 14 3 19 -7 26 -40 13 -53 -16 -16 0 -26 17 -12 31 26 36 -1 6 -30 -16 -17
-34 -27 -40 -24 -6 3 -27 -3 -48 -13 -66 -35 -152 -72 -167 -72 -8 0 -15 -7
-15 -15 0 -21 85 -21 94 0 3 8 13 15 23 15 10 0 29 9 43 20 14 11 33 20 43 20
10 0 44 12 75 27 55 27 130 45 90 22 -10 -6 -18 -17 -18 -24 0 -16 16 -20 24
-6 8 13 54 1 60 -16 9 -21 1 -30 -34 -36 -18 -4 -30 -13 -30 -22 0 -21 22 -19
64 6 20 12 36 17 36 12 0 -9 10 -11 70 -15 17 -1 30 -5 30 -10 0 -4 259 -8
575 -8 350 0 575 4 575 9 0 29 -27 71 -71 114 -44 41 -55 47 -94 47 -24 0 -46
4 -49 9 -3 5 -26 12 -52 16 -25 3 -93 22 -150 41 -58 19 -109 32 -115 28 -6
-3 -29 1 -52 9 -23 8 -64 18 -91 21 -27 3 -60 13 -73 21 -13 9 -23 11 -23 6 0
-21 -73 -24 -125 -7 -53 19 -228 91 -257 107 -10 5 -23 9 -29 9 -6 0 -23 9
-37 19 -15 10 -29 19 -32 18 -9 -1 -85 26 -95 33 -5 4 -26 11 -45 15 -50 10
-192 66 -207 81 -7 7 -23 16 -34 19 -12 4 -30 14 -41 24 -11 9 -31 25 -44 37
-33 27 -23 58 16 49 18 -4 31 -1 39 9 12 14 15 13 31 -7 14 -16 28 -21 59 -21
27 1 41 -3 41 -11 0 -14 31 -25 73 -25 16 0 27 -5 27 -14 0 -15 29 -26 69 -26
13 0 30 -8 37 -17 9 -13 26 -18 58 -18 34 0 46 -4 50 -17 2 -10 12 -18 23 -18
24 0 126 39 134 51 8 13 39 0 39 -16 0 -7 -7 -16 -16 -19 -9 -4 -14 -9 -11
-13 11 -11 -27 -63 -46 -63 -15 0 -16 -2 -5 -13 23 -22 67 -47 83 -47 8 0 15
-3 15 -7 0 -5 21 -16 48 -26 26 -11 56 -22 67 -27 11 -4 39 -13 63 -21 39 -11
44 -11 57 7 21 28 20 30 -35 50 -27 10 -50 22 -50 27 0 4 -5 5 -11 2 -5 -4
-19 1 -29 10 -18 17 -17 20 41 104 33 47 79 112 101 144 l42 57 130 41 c72 23
293 95 491 160 198 66 397 131 442 145 l83 25 85 -52 c48 -29 88 -56 91 -61
17 -28 -152 -110 -231 -112 -22 -1 -42 -5 -45 -11 -4 -10 -27 -20 -135 -57
-33 -11 -64 -23 -70 -28 -5 -4 -22 -10 -36 -13 -35 -9 -65 -66 -45 -86 12 -11
17 -10 35 8 12 12 19 26 16 30 -8 14 14 25 115 58 139 45 140 46 140 34 0 -6
-6 -11 -14 -11 -7 0 -30 -13 -49 -29 -20 -16 -57 -34 -82 -40 -25 -6 -43 -16
-40 -21 4 -6 13 -7 23 -1 9 5 80 30 157 56 77 26 144 51 149 56 5 4 10 18 11
31 4 37 4 38 18 38 6 0 32 16 56 35 66 52 83 49 251 -53 197 -119 218 -134
224 -155 2 -9 13 -17 25 -17 11 0 28 -11 36 -24 9 -13 22 -27 30 -29 11 -5 11
-1 -1 21 -20 38 -18 42 14 31 15 -5 52 -37 82 -70 56 -64 81 -132 73 -194 -5
-45 8 -60 38 -43 13 7 26 16 29 19 15 18 102 60 114 56 8 -3 17 0 19 7 3 7 30
16 64 19 32 4 69 10 83 13 l25 7 -23 -22 c-12 -12 -27 -19 -32 -16 -6 3 -10 1
-10 -4 0 -16 36 -13 50 4 7 8 18 15 25 15 7 0 18 7 25 15 7 8 46 25 86 37 64
20 74 26 74 45 0 13 -6 23 -14 23 -15 0 -78 -33 -106 -55 -16 -13 -171 -47
-179 -39 -7 7 33 33 52 34 10 0 20 6 23 14 3 8 13 12 26 8 17 -4 19 -2 13 16
-5 17 -3 21 9 16 9 -3 16 -1 16 6 0 7 8 9 20 5 11 -3 20 -2 20 3 0 17 52 33
86 26 26 -5 34 -3 34 9 0 8 -10 17 -22 20 l-22 6 22 19 c22 19 22 20 22 411 0
281 -3 391 -11 391 -6 0 -56 -27 -111 -60 -55 -34 -102 -60 -103 -58 -2 2 4
41 14 88 12 63 21 86 34 88 17 3 35 51 39 107 2 23 14 37 55 65 42 29 53 42
58 73 4 20 11 37 16 37 5 0 9 21 9 48 0 46 -1 47 -45 68 l-44 20 -21 -28 c-13
-17 -30 -28 -45 -28 -15 0 -31 -11 -45 -30 -31 -43 -89 -70 -151 -70 -40 0
-50 -3 -46 -14 7 -17 -37 -49 -61 -44 -9 2 -26 -4 -36 -14 -11 -10 -28 -18
-38 -18 -11 0 -42 -17 -71 -39 -29 -21 -63 -41 -77 -44 -14 -4 -38 -18 -55
-33 -16 -14 -50 -37 -75 -50 -25 -13 -90 -53 -145 -89 -55 -35 -120 -76 -145
-90 -25 -14 -58 -34 -75 -45 -52 -34 -77 -42 -87 -28 -10 17 -10 26 2 33 5 3
10 26 10 50 0 53 24 74 56 50 32 -24 68 -18 108 20 21 19 43 35 51 35 7 0 35
17 62 38 26 21 67 51 89 66 28 18 44 37 48 57 4 22 16 34 51 51 25 12 45 26
45 30 0 4 7 8 15 8 8 0 15 4 15 10 0 16 49 23 65 10 18 -15 35 -5 35 21 0 10
7 19 15 19 8 0 15 -5 15 -10 0 -21 40 10 46 35 3 14 12 25 20 25 16 0 37 37
29 50 -9 14 -41 12 -65 -2 -15 -10 -22 -10 -28 -2 -4 7 -18 14 -32 16 -21 3
-17 6 22 18 46 14 46 14 21 27 -21 11 -50 18 -88 22 -5 1 -2 6 8 12 9 5 17 15
17 21 0 6 8 17 18 24 15 12 12 13 -25 11 -23 -1 -45 -5 -48 -9 -3 -3 -6 -24
-7 -46 0 -37 -3 -42 -37 -55 -20 -8 -55 -31 -76 -51 -22 -19 -56 -43 -75 -53
-49 -25 -112 -65 -134 -85 -10 -9 -38 -26 -61 -37 -24 -11 -77 -51 -120 -88
-42 -37 -84 -71 -93 -74 -9 -4 -34 2 -54 12 -21 11 -45 19 -54 19 -9 0 -31 17
-50 38 -30 33 -35 36 -54 24 -47 -28 -109 -26 -258 12 -79 20 -176 49 -216 65
-40 16 -108 34 -152 41 -215 32 -654 147 -774 204 l-55 25 -27 -26 -27 -26
-38 23 c-21 12 -60 29 -86 37 -65 19 -70 38 -21 80 21 18 48 36 59 39 56 17
185 68 220 89 22 12 56 26 75 30 19 4 52 18 73 32 56 35 175 60 224 45 21 -6
64 -14 95 -17 36 -4 82 -19 120 -39 70 -36 146 -60 173 -54 11 2 -14 17 -61
38 -43 18 -80 38 -82 42 -2 4 -10 8 -17 8 -14 0 -56 82 -69 135 -9 34 -33 65
-52 65 -28 0 44 145 104 209 18 19 12 22 -65 37 -111 21 -128 26 -138 38 -5 6
-27 20 -47 31 -51 26 -74 70 -57 110 7 17 14 39 16 49 2 11 7 24 12 30 5 6 12
35 16 64 l7 52 -199 0 -199 0 -23 -70 c-12 -39 -28 -70 -35 -70 -22 0 -63 38
-97 90 l-32 50 -667 0 -668 0 -11 -45z m1700 -1337 c19 -6 40 -18 47 -25 8 -8
38 -13 78 -13 49 0 71 -5 92 -20 18 -13 46 -21 82 -22 70 -4 104 -34 113 -102
4 -26 15 -55 25 -66 10 -11 42 -59 70 -107 50 -87 78 -123 93 -123 19 0 12 60
-14 113 -15 32 -32 81 -38 108 -9 42 -8 53 5 68 26 28 20 49 -16 57 -18 3 -43
15 -56 25 -17 13 -30 15 -52 9 -22 -6 -30 -5 -30 5 0 21 40 22 130 3 47 -9
132 -24 188 -33 57 -8 131 -22 165 -29 34 -8 82 -19 107 -24 25 -5 99 -23 165
-40 66 -17 132 -33 148 -36 21 -5 27 -12 27 -33 l0 -26 -80 6 c-43 4 -88 12
-99 19 -23 14 -41 4 -24 -13 7 -7 9 -33 7 -63 -4 -41 -1 -56 16 -75 19 -22 26
-23 99 -19 67 4 78 2 73 -10 -4 -12 0 -14 21 -8 15 3 55 9 89 12 63 5 63 5 38
-13 -13 -10 -44 -35 -68 -55 -24 -21 -47 -38 -51 -38 -5 0 -25 -13 -45 -29
-34 -27 -93 -51 -164 -66 -32 -7 -34 -6 -28 16 3 13 3 18 0 12 -3 -7 -11 -13
-19 -13 -7 0 -19 -9 -26 -21 -8 -11 -45 -31 -84 -45 -108 -39 -105 -39 -105
-16 0 23 -44 36 -63 18 -17 -16 -44 -19 -65 -7 -14 9 -12 10 15 11 17 0 34 4
37 9 3 4 -6 6 -19 3 -14 -2 -25 0 -25 6 0 18 -29 21 -60 6 -17 -9 -38 -13 -48
-9 -12 5 -13 9 -4 12 26 10 9 25 -69 63 -44 21 -86 41 -92 43 -7 2 -5 12 6 27
23 34 21 48 -8 62 -21 9 -36 8 -78 -7 -29 -10 -53 -19 -55 -20 -2 -2 11 -23
29 -48 27 -39 35 -44 51 -36 10 5 23 7 30 3 7 -4 2 -11 -12 -19 l-23 -13 46
-46 c37 -38 50 -46 70 -41 14 4 28 2 31 -4 4 -6 -4 -13 -19 -17 -17 -4 -25
-13 -25 -29 0 -14 -7 -25 -20 -28 -11 -3 -18 -2 -16 2 3 4 -10 5 -28 3 -24 -3
-40 3 -64 23 -18 15 -32 31 -32 36 0 15 -102 149 -113 149 -5 0 -7 10 -4 23 6
21 6 21 -8 3 -13 -17 -19 -15 -17 5 1 3 -5 6 -13 6 -16 0 -10 -17 33 -104 16
-32 35 -82 43 -111 15 -61 7 -82 -35 -93 -25 -7 -29 -4 -42 26 -18 44 -18 60
1 79 9 9 11 17 5 21 -5 3 -10 1 -10 -6 0 -8 -4 -9 -13 0 -10 8 -17 7 -25 -1
-9 -9 -12 -8 -12 5 0 9 -6 17 -12 17 -9 0 -8 4 2 10 13 8 13 10 -1 10 -9 0
-20 7 -23 16 -4 9 -9 14 -13 11 -11 -11 -43 41 -37 60 4 13 3 15 -4 4 -7 -10
-17 0 -43 42 -18 31 -35 55 -36 53 -2 -2 15 -42 38 -90 23 -47 43 -103 44
-124 1 -20 12 -56 24 -80 25 -48 23 -57 -16 -67 -35 -9 -49 11 -46 64 1 30 -2
41 -13 41 -7 0 -14 7 -14 15 0 8 -7 15 -16 15 -8 0 -13 4 -9 10 8 12 -36 62
-50 56 -6 -2 -11 6 -11 18 1 14 -5 21 -16 20 -9 -1 -15 4 -12 10 2 6 -10 26
-27 44 -28 30 -35 33 -78 28 -25 -2 -51 -5 -57 -5 -17 -1 -15 -60 3 -94 8 -17
33 -53 55 -80 50 -64 48 -89 -7 -98 -29 -5 -45 -3 -58 9 -9 8 -15 17 -13 19 2
3 -4 13 -15 24 -10 10 -19 26 -19 34 0 8 -3 15 -7 15 -5 0 -21 11 -38 24 -22
17 -29 32 -30 57 0 29 -4 34 -35 42 -19 5 -41 13 -47 19 -9 7 -15 6 -19 -6 -7
-18 -39 -22 -49 -5 -4 6 -14 8 -22 5 -9 -4 -17 1 -20 14 -3 11 -9 20 -14 20
-5 0 -8 3 -7 8 1 4 -4 18 -11 30 -7 13 -15 40 -17 60 -4 28 1 41 23 64 15 15
32 28 38 28 6 0 22 12 36 26 22 23 29 25 89 21 36 -2 96 -14 134 -26 87 -26
170 -32 171 -12 0 8 6 16 13 19 6 2 12 -2 12 -8 0 -8 8 -10 22 -7 14 4 29 0
40 -10 10 -9 37 -19 61 -23 23 -4 58 -11 77 -16 33 -7 34 -6 20 11 -18 21 -90
56 -103 48 -4 -2 -3 -11 4 -19 27 -33 -24 -7 -69 34 -40 38 -45 66 -12 70 48
5 240 -128 240 -167 0 -12 13 -22 39 -29 44 -14 101 -16 101 -4 0 15 -94 103
-148 138 -116 78 -302 144 -402 144 -59 0 -131 -21 -180 -54 -39 -25 -39 -25
-77 -8 -57 27 -113 63 -113 73 0 5 10 9 23 9 13 0 27 4 33 8 12 11 128 54 244
91 198 63 256 72 321 49z m2482 -360 c-13 -12 -26 -18 -30 -14 -4 4 1 14 11
22 31 22 43 17 19 -8z m107 -42 c0 -3 -4 -8 -10 -11 -5 -3 -10 -1 -10 4 0 6 5
11 10 11 6 0 10 -2 10 -4z m-405 -46 c-3 -5 -11 -10 -16 -10 -6 0 -7 5 -4 10
3 6 11 10 16 10 6 0 7 -4 4 -10z m132 -27 c-3 -3 -11 -2 -17 2 -9 6 -9 10 1
16 14 8 27 -7 16 -18z m428 17 c7 -11 -11 -50 -23 -50 -4 0 -18 9 -32 20 l-25
19 25 10 c33 13 47 13 55 1z m-296 -21 c-16 -10 -23 -4 -14 10 3 6 11 8 17 5
6 -4 5 -9 -3 -15z m-329 -9 c0 -5 -7 -10 -15 -10 -8 0 -15 5 -15 10 0 6 7 10
15 10 8 0 15 -4 15 -10z m398 -6 c-2 -11 -16 -17 -45 -18 -24 -1 -43 1 -43 6
0 4 9 8 20 8 11 0 20 5 20 10 0 6 12 10 26 10 18 0 25 -5 22 -16z m114 -3 c7
-11 18 -17 27 -14 13 5 13 3 4 -7 -10 -10 -18 -10 -45 3 -18 9 -42 15 -52 14
-10 -1 -21 4 -23 11 -8 21 75 15 89 -7z m-377 -12 c-4 -5 -13 -9 -22 -9 -13 0
-13 3 -3 15 13 15 35 11 25 -6z m149 -10 c-7 -11 -44 -12 -44 -1 0 15 11 20
30 15 11 -3 17 -9 14 -14z m-369 -5 c12 -5 13 -9 5 -14 -16 -10 -51 0 -44 11
6 11 16 11 39 3z m562 -31 c3 -8 -9 -10 -39 -6 -49 6 -52 8 -44 21 7 12 78 0
83 -15z m-417 8 c0 -19 -22 -23 -38 -7 -15 15 -14 16 11 16 15 0 27 -4 27 -9z
m-3680 -11 c0 -5 -6 -10 -14 -10 -8 0 -23 -3 -33 -6 -16 -6 -16 -5 2 9 23 19
45 22 45 7z m3832 0 c6 0 8 -3 4 -7 -9 -10 -56 -11 -56 -3 0 13 14 21 28 15 7
-3 19 -5 24 -5z m-3915 -26 c-3 -3 -12 -4 -19 -1 -8 3 -5 6 6 6 11 1 17 -2 13
-5z m3448 -4 c-3 -5 -13 -10 -21 -10 -8 0 -12 5 -9 10 3 6 13 10 21 10 8 0 12
-4 9 -10z m385 -1 c0 -3 -12 -11 -26 -17 -14 -7 -23 -16 -20 -21 8 -12 -31
-44 -43 -37 -6 4 -47 -18 -91 -49 -88 -59 -105 -65 -112 -37 -7 25 -64 28 -77
4 -5 -9 -13 -14 -17 -10 -11 11 10 31 87 84 107 74 101 71 106 56 4 -10 8 -9
17 4 7 9 27 18 46 20 18 2 35 6 38 8 6 7 92 2 92 -5z m-715 -9 c3 -5 1 -10 -4
-10 -6 0 -11 5 -11 10 0 6 2 10 4 10 3 0 8 -4 11 -10z m390 0 c3 -5 1 -10 -4
-10 -6 0 -11 5 -11 10 0 6 2 10 4 10 3 0 8 -4 11 -10z m-1425 -20 c-8 -5 -22
-9 -30 -9 -10 0 -8 3 5 9 27 12 43 12 25 0z m1087 4 c-3 -3 -12 -4 -19 -1 -8
3 -5 6 6 6 11 1 17 -2 13 -5z m128 -14 c3 -5 1 -10 -4 -10 -6 0 -11 5 -11 10
0 6 2 10 4 10 3 0 8 -4 11 -10z m-1115 -20 c0 -12 -28 -20 -45 -14 -15 6 -19
16 -10 26 8 7 55 -3 55 -12z m1200 10 c0 -5 -2 -10 -4 -10 -3 0 -8 5 -11 10
-3 6 -1 10 4 10 6 0 11 -4 11 -10z m-355 -10 c-3 -5 -14 -10 -23 -10 -15 0
-15 2 -2 10 20 13 33 13 25 0z m405 0 c0 -5 -4 -10 -10 -10 -5 0 -10 5 -10 10
0 6 5 10 10 10 6 0 10 -4 10 -10z m-345 -10 c3 -5 2 -10 -4 -10 -5 0 -13 5
-16 10 -3 6 -2 10 4 10 5 0 13 -4 16 -10z m65 -10 c0 -5 -5 -10 -11 -10 -5 0
-7 5 -4 10 3 6 8 10 11 10 2 0 4 -4 4 -10z m840 2 c0 -8 -14 -16 -62 -40 -21
-10 -4 16 20 30 30 19 42 22 42 10z m-770 -12 c0 -5 -4 -10 -10 -10 -5 0 -10
5 -10 10 0 6 5 10 10 10 6 0 10 -4 10 -10z m680 -10 c-8 -5 -17 -7 -19 -4 -3
3 1 9 9 14 8 5 17 7 19 4 3 -3 -1 -9 -9 -14z m-620 0 c-8 -5 -19 -10 -25 -10
-5 0 -3 5 5 10 8 5 20 10 25 10 6 0 3 -5 -5 -10z m70 -10 c0 -5 -2 -10 -4 -10
-3 0 -8 5 -11 10 -3 6 -1 10 4 10 6 0 11 -4 11 -10z m535 -40 c-39 -26 -53
-26 -30 0 10 11 28 20 39 20 18 0 17 -3 -9 -20z m-65 0 c0 -5 -4 -10 -10 -10
-5 0 -10 5 -10 10 0 6 5 10 10 10 6 0 10 -4 10 -10z m-1560 -15 c0 -9 -9 -15
-24 -15 -30 0 -43 17 -19 23 34 9 43 7 43 -8z m996 -41 c52 -31 97 -61 101
-67 7 -11 4 -9 -60 31 -79 49 -126 72 -146 72 -12 0 -21 5 -21 10 0 21 36 8
126 -46z m574 22 c0 -9 -65 -44 -73 -39 -5 3 4 13 20 23 26 17 53 25 53 16z
m-2228 -48 c-7 -7 -12 -8 -12 -2 0 14 12 26 19 19 2 -3 -1 -11 -7 -17z m553
13 c-3 -6 4 -15 15 -21 23 -12 19 -30 -7 -26 -27 4 -39 56 -12 56 6 0 8 -4 4
-9z m-2000 -30 c-8 -13 -35 -15 -35 -2 0 5 8 11 18 13 21 5 26 2 17 -11z
m3570 -6 c-26 -22 -55 -33 -55 -21 0 7 64 46 75 45 6 0 -3 -11 -20 -24z m-65
-5 c0 -5 -4 -10 -9 -10 -6 0 -13 5 -16 10 -3 6 1 10 9 10 9 0 16 -4 16 -10z
m-1716 -9 c3 -5 -1 -11 -9 -15 -18 -6 -45 2 -45 15 0 12 47 12 54 0z m1457
-29 c-7 -2 -18 1 -23 6 -8 8 -4 9 13 5 13 -4 18 -8 10 -11z m-2021 -14 c0 -4
-4 -8 -9 -8 -6 0 -12 4 -15 8 -3 5 1 9 9 9 8 0 15 -4 15 -9z m414 6 c22 -8 20
-21 -3 -27 -24 -6 -46 7 -37 22 8 12 17 14 40 5z m1665 -23 c15 -11 44 -22 64
-26 23 -5 42 -15 49 -29 6 -11 16 -24 22 -28 6 -5 2 -8 -11 -8 -12 0 -33 9
-45 21 -13 12 -45 36 -73 55 -27 19 -46 34 -42 34 5 0 21 -9 36 -19z m-2324
-31 c-3 -5 -13 -10 -21 -10 -8 0 -14 5 -14 10 0 6 9 10 21 10 11 0 17 -4 14
-10z m555 -14 c0 -7 10 -17 23 -21 16 -5 18 -8 7 -12 -8 -3 -23 -14 -33 -24
-18 -20 -47 -26 -47 -10 0 5 12 12 26 15 17 5 24 12 20 21 -3 8 -9 22 -12 30
-3 8 -1 15 5 15 6 0 11 -6 11 -14z m-730 -6 c0 -5 -3 -9 -7 -8 -5 1 -21 -2
-36 -7 -35 -9 -48 1 -16 14 32 13 59 13 59 1z m640 6 c0 -2 -15 -9 -32 -15
-30 -10 -31 -9 -14 4 18 14 46 20 46 11z m2328 -10 c-10 -7 -16 -16 -13 -19 3
-4 2 -5 -2 -2 -3 3 -21 -7 -40 -21 -18 -14 -33 -21 -33 -15 0 11 80 70 95 70
6 0 2 -6 -7 -13z m-293 -6 c3 -5 1 -10 -4 -10 -6 0 -11 5 -11 10 0 6 2 10 4
10 3 0 8 -4 11 -10z m-2331 -15 c4 -12 -3 -15 -29 -15 -34 0 -47 13 -22 23 24
10 45 7 51 -8z m-247 -12 c5 -14 -52 -27 -69 -17 -8 5 -3 12 17 20 33 14 47
13 52 -3z m-757 -23 c0 -6 -8 -14 -17 -17 -10 -4 -20 -9 -23 -13 -3 -3 -18 -3
-35 1 -20 4 -23 7 -10 8 11 1 31 8 45 16 30 17 40 18 40 5z m1115 0 c17 -6 14
-9 -17 -15 -41 -8 -69 2 -47 16 17 11 37 10 64 -1z m-247 -12 c-5 -15 -58 -30
-78 -22 -12 4 -12 8 4 20 24 17 79 19 74 2z m102 -38 c0 -11 -60 -31 -71 -24
-18 11 -8 24 24 32 33 9 47 7 47 -8z m319 -2 c-10 -19 -34 -24 -44 -9 -3 6
-19 4 -40 -5 -40 -16 -75 -18 -75 -4 0 6 6 10 14 10 7 0 18 6 24 13 6 7 35 12
71 13 55 0 59 -1 50 -18z m2321 -3 c-7 -8 -17 -15 -23 -15 -6 0 -2 7 9 15 25
19 30 19 14 0z m77 -42 c2 -6 -15 -24 -39 -41 -24 -17 -49 -37 -57 -43 -11
-10 -13 -10 -9 2 2 7 -5 22 -16 31 -21 18 -21 18 -1 31 23 14 95 36 109 33 6
-1 11 -7 13 -13z m-2577 -3 c0 -10 -105 -33 -121 -27 -21 7 50 35 88 34 18 -1
33 -4 33 -7z m-900 -16 c0 -16 -16 -34 -30 -34 -13 0 -17 6 -13 19 3 12 13 19
24 18 10 -1 19 -2 19 -3z m-75 -14 c17 -7 16 -9 -10 -10 l-30 -2 30 -8 c17 -4
22 -8 13 -9 -10 0 -18 -5 -18 -11 0 -5 -9 -10 -21 -10 -13 0 -18 -4 -13 -12 4
-7 4 -10 0 -6 -4 3 -21 2 -36 -4 -23 -8 -34 -6 -53 8 l-24 18 41 19 c23 10 48
22 56 27 19 11 39 11 65 0z m-155 -71 c0 -11 -27 -12 -34 0 -3 4 -3 11 0 14 8
8 34 -3 34 -14z m349 -5 c2 -2 -14 -4 -37 -4 -23 0 -42 5 -42 10 0 10 67 4 79
-6z m-189 -44 c0 -5 -9 -10 -21 -10 -11 0 -17 5 -14 10 3 6 13 10 21 10 8 0
14 -4 14 -10z m-23 -39 c-3 -14 -1 -18 9 -14 8 3 14 0 14 -6 0 -6 -10 -11 -23
-11 -13 0 -29 -6 -36 -12 -10 -11 -12 -7 -9 17 3 27 11 34 47 44 2 1 1 -8 -2
-18z m273 -21 c0 -5 -5 -10 -11 -10 -5 0 -7 5 -4 10 3 6 8 10 11 10 2 0 4 -4
4 -10z m-20 -31 c0 -5 -4 -9 -10 -9 -5 0 -10 7 -10 16 0 8 5 12 10 9 6 -3 10
-10 10 -16z m-40 -4 c0 -8 8 -15 18 -16 13 0 14 -2 2 -6 -8 -3 -23 -12 -32
-21 -10 -8 -24 -12 -33 -9 -8 4 -15 2 -15 -3 0 -5 -19 -19 -42 -31 -31 -16
-46 -19 -59 -11 -12 8 -20 6 -33 -6 -11 -11 -16 -12 -16 -4 0 7 -5 10 -11 6
-19 -11 13 -24 34 -12 10 5 21 7 25 4 8 -9 -1 -15 -34 -22 -22 -4 -32 -1 -42
16 -11 17 -10 21 5 26 31 10 68 29 81 42 22 20 35 14 28 -13 -9 -34 5 -31 29
5 11 16 24 28 30 27 12 -4 35 17 35 32 0 6 7 11 15 11 8 0 15 -7 15 -15z m325
-125 c-3 -5 -11 -10 -16 -10 -6 0 -7 5 -4 10 3 6 11 10 16 10 6 0 7 -4 4 -10z
m270 -189 c3 -5 1 -12 -5 -16 -5 -3 -10 1 -10 9 0 18 6 21 15 7z"/>
<path d="M3222 1223 c-12 -2 -20 -9 -17 -14 4 -5 -1 -9 -10 -9 -9 0 -29 -9
-45 -20 -15 -11 -29 -18 -31 -17 -3 1 -1 -2 3 -7 4 -5 22 -2 41 8 19 9 41 16
49 16 18 1 48 25 48 39 0 6 -3 10 -7 10 -5 -1 -18 -4 -31 -6z"/>
<path d="M2980 1099 c0 -5 5 -7 10 -4 6 3 10 8 10 11 0 2 -4 4 -10 4 -5 0 -10
-5 -10 -11z"/>
<path d="M4110 1160 c-8 -5 -11 -12 -7 -16 4 -4 13 -2 19 4 15 15 7 24 -12 12z"/>
<path d="M4049 1143 c-13 -17 -13 -17 6 -3 11 8 22 16 24 17 2 2 0 3 -6 3 -6
0 -17 -8 -24 -17z"/>
<path d="M3974 1115 c-16 -12 -16 -14 -3 -15 9 0 22 7 29 15 16 19 0 19 -26 0z"/>
<path d="M4125 1120 c-3 -5 -2 -10 4 -10 5 0 13 5 16 10 3 6 2 10 -4 10 -5 0
-13 -4 -16 -10z"/>
<path d="M721 571 c-7 -5 -9 -11 -4 -14 4 -3 17 1 28 9 21 16 0 20 -24 5z"/>
<path d="M2535 3135 c17 -8 50 -15 75 -15 25 -1 99 -10 165 -21 66 -11 152
-23 190 -26 45 -3 73 -10 78 -19 5 -8 24 -14 45 -14 20 0 84 -9 142 -21 58
-11 136 -22 175 -25 38 -3 72 -9 75 -14 14 -21 91 -16 205 12 114 28 164 48
119 48 -11 0 -25 5 -32 12 -8 8 -12 9 -12 1 0 -11 -26 -9 -60 5 -8 3 -42 11
-75 18 -33 7 -78 17 -100 24 -39 11 -83 20 -196 40 -30 6 -228 10 -440 9 -334
-1 -380 -2 -354 -14z"/>
<path d="M4634 3115 c-17 -41 -21 -194 -6 -204 14 -8 25 -75 17 -100 -3 -12
-10 -19 -15 -16 -9 5 -15 -38 -25 -180 -11 -151 -29 -170 -124 -131 -39 17
-103 29 -211 41 -85 10 -175 24 -200 32 -47 15 -207 37 -345 47 l-80 6 55 -19
c30 -10 93 -29 140 -41 47 -12 92 -26 102 -30 9 -5 40 -12 70 -15 29 -4 78
-15 108 -24 30 -10 89 -26 130 -36 41 -10 95 -27 120 -37 29 -13 59 -18 85
-15 23 2 52 -2 69 -10 28 -15 28 -16 22 -76 l-6 -62 38 -25 c57 -38 73 -42
119 -29 l43 12 0 431 0 431 -22 10 c-13 6 -30 25 -38 42 -19 42 -28 41 -46 -2z"/>
<path d="M2545 2700 c3 -5 8 -10 11 -10 2 0 4 5 4 10 0 6 -5 10 -11 10 -5 0
-7 -4 -4 -10z"/>
<path d="M2775 2338 c38 -20 75 -61 86 -95 8 -24 16 -33 33 -33 28 0 46 18 46
47 0 20 -13 30 -72 58 -40 19 -82 35 -93 35 -20 -1 -20 -1 0 -12z"/>
<path d="M4415 2170 c-14 -27 -14 -33 0 -60 22 -44 73 -64 139 -56 65 9 84 26
70 64 -6 18 -19 28 -39 32 -17 4 -49 16 -72 28 -58 30 -79 28 -98 -8z"/>
<path d="M4640 2055 c0 -14 2 -25 4 -25 2 0 12 -3 21 -6 16 -6 16 -5 1 25 -20
38 -26 39 -26 6z"/>
<path d="M4558 1535 c-3 -14 -2 -25 2 -25 4 0 10 11 12 25 3 14 2 25 -2 25 -4
0 -10 -11 -12 -25z"/>
<path d="M315 1270 c3 -5 13 -10 21 -10 8 0 12 5 9 10 -3 6 -13 10 -21 10 -8
0 -12 -4 -9 -10z"/>
<path d="M305 1240 c3 -5 11 -10 16 -10 6 0 7 5 4 10 -3 6 -11 10 -16 10 -6 0
-7 -4 -4 -10z"/>
<path d="M88 1233 c7 -3 16 -2 19 1 4 3 -2 6 -13 5 -11 0 -14 -3 -6 -6z"/>
<path d="M222 1231 c-11 -7 -10 -10 3 -15 28 -10 45 -7 45 9 0 16 -27 20 -48
6z"/>
<path d="M290 1220 c0 -5 7 -10 16 -10 8 0 12 5 9 10 -3 6 -10 10 -16 10 -5 0
-9 -4 -9 -10z"/>
<path d="M175 1200 c3 -5 10 -10 16 -10 5 0 9 5 9 10 0 6 -7 10 -16 10 -8 0
-12 -4 -9 -10z"/>
<path d="M393 913 c9 -2 23 -2 30 0 6 3 -1 5 -18 5 -16 0 -22 -2 -12 -5z"/>
<path d="M3438 755 c-3 -3 -30 -10 -61 -15 -30 -5 -75 -17 -99 -28 -23 -11
-73 -33 -109 -50 -37 -16 -69 -35 -73 -41 -9 -15 -11 -15 96 15 80 23 278 108
278 120 0 6 -26 5 -32 -1z"/>
<path d="M2734 611 c21 -23 26 -26 26 -11 0 5 -10 15 -22 21 -23 12 -23 12 -4
-10z"/>
<path d="M2775 580 c3 -5 8 -10 11 -10 2 0 4 5 4 10 0 6 -5 10 -11 10 -5 0 -7
-4 -4 -10z"/>
<path d="M2812 550 c13 -20 28 -27 28 -12 0 10 -22 32 -32 32 -5 0 -3 -9 4
-20z"/>
<path d="M2850 523 c0 -5 17 -18 38 -31 70 -42 77 -47 85 -59 4 -7 15 -13 22
-13 8 0 15 -4 15 -10 0 -5 6 -10 14 -10 7 0 19 -7 26 -15 7 -9 15 -13 18 -11
8 9 -97 93 -111 88 -4 -1 -10 5 -13 13 -4 8 -11 15 -18 15 -6 0 -22 9 -36 20
-26 21 -40 25 -40 13z"/>
<path d="M4437 469 c-9 -6 -15 -14 -12 -20 4 -5 0 -9 -7 -9 -15 0 -115 -50
-155 -77 -16 -11 -47 -27 -70 -37 -23 -10 -52 -29 -64 -42 -12 -13 -28 -24
-35 -24 -7 0 -20 -8 -30 -17 -15 -16 -16 -15 -9 16 l7 34 -38 -8 c-59 -12
-157 -14 -178 -3 -12 7 -16 7 -12 0 3 -5 -7 -12 -22 -15 -46 -9 -67 -15 -106
-31 -21 -9 -79 -30 -129 -47 -51 -17 -105 -37 -122 -44 -16 -7 -77 -29 -135
-50 -90 -31 -110 -34 -134 -25 -23 8 -40 7 -79 -6 -49 -16 -87 -41 -87 -56 0
-5 261 -8 580 -8 492 0 581 2 586 14 3 8 29 26 58 39 52 25 81 57 51 57 -7 0
-17 -5 -21 -11 -3 -6 -15 -9 -25 -6 -10 3 -30 -5 -45 -18 -47 -40 -73 -51 -92
-37 -9 7 -27 16 -39 22 -12 5 -28 18 -35 30 -7 11 -18 20 -24 20 -45 0 12 102
65 115 14 4 34 14 43 22 10 8 24 13 33 10 8 -4 14 -1 12 5 -2 9 33 33 228 154
33 20 66 37 73 37 6 0 12 6 12 14 0 15 -18 16 -43 2z"/>
<path d="M4550 440 c0 -5 5 -10 11 -10 5 0 7 5 4 10 -3 6 -8 10 -11 10 -2 0
-4 -4 -4 -10z"/>
<path d="M4062 405 c-11 -25 -7 -55 8 -55 18 0 28 64 11 74 -4 3 -13 -6 -19
-19z"/>
<path d="M845 400 c-3 -5 1 -10 9 -10 9 0 16 5 16 10 0 6 -4 10 -9 10 -6 0
-13 -4 -16 -10z"/>
<path d="M671 371 c-11 -7 -10 -11 7 -20 25 -14 43 -14 22 -1 -11 7 -11 10 -2
10 7 0 10 5 7 10 -8 12 -16 12 -34 1z"/>
<path d="M4648 329 c-38 -27 -68 -54 -68 -59 0 -18 18 -20 46 -5 16 8 34 15
41 15 20 0 73 58 73 80 0 30 -18 24 -92 -31z"/>
<path d="M720 350 c0 -5 6 -10 14 -10 8 0 18 5 21 10 3 6 -3 10 -14 10 -12 0
-21 -4 -21 -10z"/>
<path d="M3870 290 c0 -5 5 -10 10 -10 6 0 10 5 10 10 0 6 -4 10 -10 10 -5 0
-10 -4 -10 -10z"/>
<path d="M4230 240 c-13 -8 -12 -10 3 -10 9 0 17 5 17 10 0 12 -1 12 -20 0z"/>
<path d="M4514 240 c-6 -6 -24 -13 -40 -16 -16 -3 -34 -12 -41 -20 -7 -9 -17
-13 -24 -8 -8 4 -10 3 -5 -4 4 -7 1 -12 -6 -12 -21 -1 -58 -37 -57 -57 0 -10
3 -13 5 -6 3 7 43 30 88 53 83 40 135 80 105 80 -8 0 -20 -5 -25 -10z"/>
<path d="M1225 220 c4 -6 11 -8 16 -5 14 9 11 15 -7 15 -8 0 -12 -5 -9 -10z"/>
<path d="M4180 220 c0 -5 5 -10 10 -10 6 0 10 5 10 10 0 6 -4 10 -10 10 -5 0
-10 -4 -10 -10z"/>
<path d="M1190 211 c0 -6 5 -13 10 -16 6 -4 8 -11 5 -16 -4 -5 -2 -9 4 -9 18
0 18 15 -1 33 -10 9 -18 13 -18 8z"/>
<path d="M4096 155 c-3 -8 -1 -15 4 -15 6 0 10 7 10 15 0 8 -2 15 -4 15 -2 0
-6 -7 -10 -15z"/>
<path d="M739 156 c-2 -3 -38 -6 -79 -7 -97 -3 -137 -18 -52 -18 45 -1 61 -4
56 -12 -5 -8 1 -10 18 -6 33 9 98 36 98 42 0 6 -35 7 -41 1z"/>
<path d="M898 113 c7 -3 16 -2 19 1 4 3 -2 6 -13 5 -11 0 -14 -3 -6 -6z"/>
<path d="M710 18 c0 -15 4 -17 18 -9 45 27 48 31 15 29 -24 -2 -33 -7 -33 -20z"/>
</g>
</svg>
